<?xml version="1.0" encoding="UTF-8"?>
<!-- Generator: Adobe Illustrator 19.2.0, SVG Export Plug-In . SVG Version: 6.00 Build 0)  -->
<!DOCTYPE svg PUBLIC "-//W3C//DTD SVG 1.1//EN" "http://www.w3.org/Graphics/SVG/1.1/DTD/svg11.dtd">
<svg xmlns="http://www.w3.org/2000/svg" xmlns:xlink="http://www.w3.org/1999/xlink" version="1.1" id="Layer_1" x="0px" y="0px" width="300px" height="76.5px" viewBox="0 0 300 76.5" style="enable-background:new 0 0 300 76.5;" xml:space="preserve">
<style type="text/css">
	.st0{fill:#EB3300;}
	.st1{fill:#373A36;}
</style>
<title>rosette2</title>
<path class="st0" d="M38.2,76.5c-5.1,0-9.9-2-13.5-5.7h-0.3C14.1,70.8,5.7,62.4,5.7,52c0-0.1,0-0.2,0-0.3  c-7.4-7.2-7.6-19.1-0.4-26.6c0.1-0.1,0.2-0.2,0.4-0.4C5.5,14.4,13.8,5.9,24.2,5.7c0.1,0,0.2,0,0.3,0h0.3C32-1.7,43.9-1.9,51.3,5.3  c0.1,0.1,0.2,0.2,0.4,0.4H52c10.4,0,18.8,8.4,18.8,18.8c0,0.1,0,0.2,0,0.3c7.4,7.2,7.6,19.1,0.4,26.6c-0.1,0.1-0.2,0.2-0.4,0.4  c0.2,10.4-8.1,18.9-18.5,19.1c-0.1,0-0.2,0-0.3,0h-0.3C48.2,74.4,43.3,76.5,38.2,76.5z M29.2,70.1c5.4,3.7,12.6,3.7,18,0  c-3.3-0.8-6.2-2.5-8.6-4.9c-0.1-0.1-0.3-0.3-0.4-0.5c-0.2,0.2-0.3,0.3-0.4,0.5C35.4,67.6,32.5,69.3,29.2,70.1z M22.2,56.8  c0,3.9,1.4,7.7,4,10.6c3.9-0.3,7.5-1.9,10.2-4.7l0.1-0.1c-2.5-3.6-3.7-8.1-3.3-12.5c-2.8,3.4-6.7,5.7-11.1,6.5  C22.2,56.8,22.2,56.8,22.2,56.8L22.2,56.8z M40.1,62.7c2.8,2.8,6.4,4.4,10.3,4.7c2.5-2.9,4-6.7,3.9-10.6c0,0,0-0.1,0-0.1  c-4.4-0.8-8.3-3.1-11.2-6.5c0.4,4.4-0.7,8.8-3.2,12.4L40.1,62.7z M9.3,54.5C10.5,60.9,15.6,66,22,67.2c-1.7-2.9-2.6-6.2-2.6-9.6  c0-0.2,0-0.4,0-0.6h-0.6C15.4,57,12.2,56.1,9.3,54.5z M57,57c0,0.2,0,0.4,0,0.6c0,3.3-0.9,6.6-2.6,9.5c6.5-1.2,11.5-6.3,12.8-12.8  C64.3,56.1,61,57,57.7,57L57,57z M37,44.3l-0.3,0.6c-2.2,5.1-1.6,11.1,1.6,15.7c3.2-4.6,3.8-10.5,1.5-15.7l-0.3-0.6l2.1-0.9l0.2,0.6  c2,5.2,6.7,9,12.2,10c-1-5.5-4.8-10.1-10-12.1l-0.6-0.2l0.9-2.2l0.6,0.3c2,0.9,4.2,1.3,6.4,1.4c3.3,0,6.5-1,9.2-2.9  c-2.7-1.9-5.9-2.9-9.2-2.9c-2.2,0-4.5,0.5-6.5,1.4l-0.6,0.3l-0.9-2.1l0.6-0.2c5.2-2,9-6.7,10-12.2c-5.5,1-10.1,4.8-12.1,10L41.6,33  l-2.2-0.9l0.3-0.6c2.2-5.1,1.6-11.1-1.6-15.7c-3.2,4.6-3.8,10.5-1.5,15.7l0.3,0.6L34.8,33l-0.2-0.6c-2-5.2-6.7-9-12.2-9.9  c1,5.5,4.8,10.1,10,12.1l0.6,0.2L32.1,37l-0.6-0.3c-2-0.9-4.2-1.3-6.4-1.3c-3.3,0-6.5,1-9.2,2.9c2.7,1.9,5.9,2.9,9.2,2.9  c2.2,0,4.5-0.5,6.5-1.4l0.6-0.3l0.9,2.1l-0.6,0.2c-5.2,2-9,6.7-9.9,12.2c5.5-1,10.1-4.8,12.1-10l0.2-0.6L37,44.3z M9,50.4  c2.9,2.5,6.7,4,10.6,3.9h0.1c0.8-4.4,3.1-8.3,6.5-11.2c-0.6,0.1-1.2,0.1-1.8,0.1c-3.8,0-7.5-1.1-10.6-3.3l-0.1,0.1  C11,42.8,9.3,46.5,9,50.4z M56.8,54.2c3.9,0,7.7-1.4,10.6-4c-0.3-3.9-1.9-7.5-4.7-10.2l-0.1-0.1c-3.1,2.2-6.9,3.4-10.7,3.4  c-0.6,0-1.2,0-1.8-0.1c3.4,2.8,5.7,6.7,6.5,11.1L56.8,54.2L56.8,54.2z M6.3,29.2c-3.7,5.4-3.7,12.6,0,18c0.8-3.3,2.5-6.2,4.9-8.6  c0.1-0.1,0.3-0.3,0.5-0.4c-0.2-0.2-0.3-0.3-0.5-0.4C8.8,35.4,7.1,32.5,6.3,29.2z M64.8,38.2c0.2,0.2,0.3,0.3,0.5,0.4  c2.4,2.4,4.1,5.3,4.9,8.5c3.7-5.4,3.7-12.6,0-18c-0.8,3.3-2.5,6.2-4.9,8.6C65.1,37.9,65,38.1,64.8,38.2z M9,26.2  c0.3,3.9,1.9,7.5,4.7,10.2l0.1,0.1c3.1-2.2,6.9-3.4,10.7-3.4c0.6,0,1.2,0,1.8,0.1c-3.4-2.8-5.7-6.7-6.5-11h-0.1  C15.7,22.2,11.9,23.6,9,26.2z M52,33.2c3.8,0,7.5,1.1,10.6,3.3l0.1-0.1c2.8-2.8,4.4-6.4,4.7-10.3c-2.9-2.6-6.7-4-10.5-4h-0.1  c-0.8,4.4-3.1,8.4-6.5,11.2C50.8,33.2,51.4,33.2,52,33.2z M22.1,19.7c4.4,0.8,8.4,3.1,11.2,6.5c-0.4-4.4,0.7-8.8,3.2-12.4l-0.1-0.1  C33.6,11,30,9.3,26.1,9c-2.6,2.9-4,6.7-4,10.5C22.1,19.6,22.1,19.7,22.1,19.7z M39.9,13.7c2.5,3.6,3.7,8.1,3.3,12.5  c2.8-3.4,6.7-5.7,11.1-6.5c0,0,0-0.1,0-0.1c0-3.9-1.4-7.7-4-10.6c-3.9,0.3-7.5,1.9-10.2,4.7L39.9,13.7z M22,9.3  C15.5,10.5,10.5,15.6,9.2,22c2.9-1.7,6.2-2.6,9.5-2.6h0.6c0-0.2,0-0.4,0-0.6C19.4,15.4,20.3,12.2,22,9.3z M57.7,19.4  c3.3,0,6.6,0.9,9.5,2.6c-1.2-6.5-6.3-11.5-12.8-12.8c1.7,2.9,2.6,6.2,2.6,9.6c0,0.2,0,0.4,0,0.6L57.7,19.4z M29.2,6.3  c3.3,0.8,6.2,2.5,8.6,4.9c0.1,0.1,0.3,0.3,0.4,0.5c0.2-0.2,0.3-0.3,0.4-0.5C41,8.8,44,7.1,47.2,6.3C41.8,2.6,34.6,2.6,29.2,6.3z"/>
<g id="_Group_">
	<path id="_Compound_Path_" class="st1" d="M104.8,34.9v13.8h-6.6V13.4H109c2.1,0,4.2,0.2,6.2,0.7c1.5,0.4,3,1.1,4.2,2.1   c1.1,0.9,1.9,2,2.4,3.2c0.9,2.4,1,5,0.2,7.5c-0.3,1-0.9,2-1.5,2.9c-0.7,0.9-1.5,1.7-2.4,2.3c-1,0.7-2.1,1.2-3.3,1.6   c0.9,0.5,1.6,1.2,2.2,2l8.8,13h-5.9c-0.5,0-1-0.1-1.5-0.3c-0.4-0.3-0.8-0.6-1-1L110,36.1c-0.2-0.4-0.5-0.7-0.9-0.9   c-0.5-0.2-1-0.3-1.5-0.3L104.8,34.9L104.8,34.9z M104.8,30.2h4.1c1.1,0,2.2-0.1,3.2-0.5c0.8-0.3,1.6-0.7,2.3-1.3   c0.6-0.5,1-1.2,1.3-1.9c0.3-0.8,0.5-1.6,0.4-2.5c0.1-1.6-0.6-3.1-1.8-4.1c-1.2-1-3-1.4-5.4-1.4h-4.2L104.8,30.2L104.8,30.2z"/>
	<path id="_Compound_Path_2" class="st1" d="M160.7,31.1c0,2.4-0.4,4.9-1.3,7.2c-0.8,2.1-2.1,4.1-3.6,5.7c-1.6,1.6-3.5,2.9-5.6,3.8   c-4.7,1.8-9.9,1.8-14.6,0c-2.1-0.9-4.1-2.1-5.7-3.8c-1.6-1.6-2.8-3.6-3.7-5.7c-0.9-2.3-1.3-4.7-1.3-7.2c0-2.5,0.4-4.9,1.3-7.2   c0.8-2.1,2.1-4.1,3.7-5.7c1.6-1.6,3.5-2.9,5.7-3.8c2.3-0.9,4.8-1.4,7.3-1.4c2.5,0,5,0.4,7.3,1.4c2.1,0.9,4,2.1,5.6,3.8   c1.6,1.6,2.8,3.6,3.6,5.7C160.2,26.2,160.7,28.6,160.7,31.1z M153.9,31.1c0-1.8-0.2-3.5-0.8-5.2c-0.5-1.4-1.2-2.8-2.2-3.9   c-1-1.1-2.2-1.9-3.5-2.5c-3-1.1-6.3-1.1-9.3,0c-1.3,0.5-2.6,1.4-3.5,2.5c-1,1.1-1.8,2.5-2.2,3.9c-0.5,1.7-0.8,3.4-0.8,5.2   c0,1.8,0.2,3.5,0.8,5.2c0.5,1.4,1.2,2.8,2.2,3.9c1,1.1,2.2,1.9,3.5,2.5c3,1.1,6.3,1.1,9.3,0c1.3-0.5,2.5-1.4,3.5-2.5   c1-1.1,1.8-2.5,2.2-3.9C153.7,34.6,153.9,32.8,153.9,31.1z"/>
	<path id="_Compound_Path_3" class="st1" d="M183.6,19.8c-0.1,0.3-0.4,0.6-0.6,0.8c-0.3,0.2-0.5,0.2-0.8,0.2c-0.4,0-0.8-0.2-1.1-0.4   c-0.4-0.3-0.9-0.5-1.4-0.8c-0.6-0.3-1.3-0.6-1.9-0.8c-0.8-0.3-1.7-0.4-2.6-0.4c-0.8,0-1.6,0.1-2.4,0.3c-0.6,0.2-1.2,0.5-1.7,0.9   c-0.5,0.4-0.8,0.8-1,1.4c-0.2,0.6-0.4,1.2-0.3,1.8c0,0.8,0.2,1.5,0.7,2.1c0.5,0.6,1.1,1.1,1.8,1.4c0.8,0.4,1.7,0.8,2.6,1.1   c1,0.3,2,0.6,3,1c1,0.4,2,0.8,3,1.2c1,0.5,1.8,1,2.6,1.8c0.8,0.7,1.4,1.6,1.9,2.6c0.5,1.2,0.7,2.5,0.7,3.7c0,1.5-0.3,3.1-0.8,4.5   c-0.5,1.4-1.3,2.6-2.4,3.6c-1.1,1.1-2.4,1.9-3.8,2.4c-1.7,0.6-3.4,0.9-5.2,0.9c-1.1,0-2.2-0.1-3.3-0.3c-1.1-0.2-2.1-0.5-3.1-0.9   c-1-0.4-1.9-0.9-2.8-1.5c-0.8-0.5-1.6-1.2-2.3-1.9l1.9-3.2c0.2-0.2,0.4-0.4,0.6-0.6c0.3-0.2,0.5-0.2,0.8-0.2c0.5,0,0.9,0.2,1.3,0.5   c0.5,0.3,1,0.7,1.7,1.1c0.7,0.5,1.5,0.8,2.3,1.1c1,0.4,2.1,0.5,3.1,0.5c1.9,0,3.3-0.4,4.3-1.3c1.1-1,1.6-2.4,1.5-3.8   c0-0.8-0.2-1.6-0.7-2.3c-0.5-0.6-1.1-1.1-1.9-1.5c-0.8-0.4-1.7-0.8-2.6-1c-1-0.3-2-0.6-3-0.9c-1-0.3-2-0.7-3-1.2   c-1-0.4-1.8-1-2.6-1.8c-0.8-0.8-1.4-1.7-1.8-2.7c-0.5-1.3-0.7-2.7-0.7-4.1c0-2.6,1.1-5.2,3-7c1.1-1,2.3-1.8,3.6-2.3   c1.6-0.6,3.2-0.9,4.9-0.9c2,0,3.9,0.3,5.8,1c1.7,0.6,3.2,1.5,4.5,2.7L183.6,19.8z"/>
	<path id="_Compound_Path_4" class="st1" d="M212.3,13.4v5.4h-15.7v9.6h12.3v5.1h-12.3v9.8h15.7v5.4H190V13.4H212.3z"/>
	<path id="_Compound_Path_5" class="st1" d="M243.4,13.4v5.4h-10.6v29.9h-6.5V18.8h-10.7v-5.4L243.4,13.4L243.4,13.4z"/>
	<path id="_Compound_Path_6" class="st1" d="M274.4,13.4v5.4h-10.6v29.9h-6.6V18.8h-10.7v-5.4L274.4,13.4L274.4,13.4z"/>
	<path id="_Compound_Path_7" class="st1" d="M299.9,13.4v5.2h-15.7v9.8h12.3v5.1h-12.3v10h15.7v5.3h-22.3V13.4H299.9z"/>
	<g id="_Group_2">
		<polygon id="_Path_" class="st1" points="98.4,57.1 101.7,57.1 101.7,66.5 104.3,66.5 104.3,57.1 107.7,57.1 107.7,54.9     98.4,54.9   "/>
		<polygon id="_Path_2" class="st1" points="114.4,66.5 121.9,66.5 121.9,64.3 117,64.3 117,61.7 120.8,61.7 120.8,59.6 117,59.6     117,57.1 121.9,57.1 121.9,54.9 114.4,54.9   "/>
		<path id="_Path_3" class="st1" d="M138.5,54.9h-2.5c-0.3,0-0.5,0.2-0.7,0.4l-2.3,3.6l-2.2-3.6c-0.1-0.1-0.2-0.2-0.3-0.3    c-0.1-0.1-0.3-0.1-0.5-0.1h-2.6l3.7,5.6l-3.9,6h2.4c0.2,0,0.4-0.1,0.5-0.2c0.1-0.1,0.2-0.2,0.3-0.3l2.4-3.8l2.3,3.8    c0.1,0.1,0.2,0.2,0.3,0.3c0.1,0.1,0.3,0.2,0.5,0.2h2.6l-3.8-6L138.5,54.9z"/>
		<polygon id="_Path_4" class="st1" points="144.2,57.1 147.6,57.1 147.6,66.5 150.2,66.5 150.2,57.1 153.5,57.1 153.5,54.9     144.2,54.9   "/>
		<path id="_Compound_Path_8" class="st1" d="M172.3,54.9l-4.6,11.6h2c0.2,0,0.4-0.1,0.6-0.2c0.1-0.1,0.3-0.3,0.3-0.4l0.8-2.1h4.2    l0.8,2.1c0.1,0.2,0.2,0.3,0.3,0.5c0.2,0.1,0.4,0.2,0.6,0.2h2l-4.6-11.6H172.3L172.3,54.9z M173.3,58.5c0.1-0.1,0.1-0.3,0.2-0.5    c0.1,0.2,0.1,0.3,0.2,0.4l1.2,3.3h-2.7L173.3,58.5z"/>
		<path id="_Path_5" class="st1" d="M193.6,61.9c0,0,0,0.1,0,0.1l-5.3-6.7c-0.1-0.1-0.1-0.1-0.2-0.2c-0.1-0.1-0.1-0.1-0.2-0.1    c-0.1,0-0.2-0.1-0.2-0.1c-0.1,0-0.2,0-0.3,0h-1.4v11.6h2.4v-7.1c0,0,0-0.1,0-0.1l5.3,6.7c0.1,0.2,0.2,0.3,0.4,0.4    c0.2,0.1,0.4,0.1,0.5,0.1h1.3V54.9h-2.4L193.6,61.9L193.6,61.9z"/>
		<path id="_Compound_Path_9" class="st1" d="M207.3,54.9l-4.6,11.6h2c0.2,0,0.4-0.1,0.6-0.2c0.1-0.1,0.3-0.3,0.3-0.4l0.8-2.1h4.2    l0.8,2.1c0.1,0.2,0.2,0.3,0.3,0.5c0.2,0.1,0.4,0.2,0.6,0.2h2l-4.6-11.6H207.3L207.3,54.9z M208.4,58.5c0.1-0.1,0.1-0.3,0.2-0.5    c0.1,0.2,0.1,0.3,0.2,0.4l1.2,3.3h-2.7L208.4,58.5z"/>
		<polygon id="_Path_6" class="st1" points="223.7,54.9 221.1,54.9 221.1,66.5 228.1,66.5 228.1,64.2 223.7,64.2   "/>
		<path id="_Path_7" class="st1" d="M240.3,55.1c-0.1,0.1-0.2,0.2-0.3,0.4l-2,3.7c-0.1,0.2-0.2,0.4-0.3,0.6    c-0.1-0.2-0.2-0.4-0.3-0.6l-2.1-3.7c-0.1-0.2-0.2-0.3-0.3-0.4c-0.2-0.1-0.4-0.2-0.6-0.2h-2.3l4.2,7.1v4.5h2.6V62l4.2-7.1h-2.3    C240.7,54.9,240.5,54.9,240.3,55.1z"/>
		<polygon id="_Path_8" class="st1" points="248.9,57.1 252.2,57.1 252.2,66.5 254.9,66.5 254.9,57.1 258.2,57.1 258.2,54.9     248.9,54.9   "/>
		<rect id="_Path_9" x="265.5" y="54.9" class="st1" width="2.6" height="11.6"/>
		<path id="_Path_10" class="st1" d="M279.3,58c0.3-0.3,0.6-0.6,1-0.7c0.8-0.3,1.6-0.3,2.3-0.1c0.2,0.1,0.5,0.2,0.7,0.3    c0.2,0.1,0.3,0.2,0.4,0.3c0.3,0.2,0.6,0.3,0.9,0.1c0.1-0.1,0.2-0.1,0.2-0.2l0.8-1.1l-0.2-0.2c-0.5-0.5-1-0.8-1.7-1.1    c-0.7-0.3-1.5-0.4-2.3-0.4c-0.8,0-1.6,0.1-2.4,0.4c-1.4,0.6-2.6,1.7-3.1,3.1c-0.3,0.8-0.4,1.6-0.4,2.4c0,0.8,0.1,1.6,0.4,2.4    c0.2,0.7,0.6,1.3,1.1,1.9c0.5,0.5,1.1,1,1.8,1.2c0.7,0.3,1.5,0.5,2.3,0.4c0.8,0,1.7-0.1,2.5-0.5c0.7-0.3,1.3-0.8,1.8-1.4l0.2-0.2    l-1-1.1c-0.2-0.2-0.5-0.3-0.8-0.1c-0.1,0-0.2,0.1-0.2,0.2c-0.1,0.1-0.3,0.3-0.5,0.4c-0.2,0.1-0.3,0.2-0.5,0.2    c-0.2,0.1-0.4,0.1-0.6,0.1c-0.2,0-0.5,0-0.7,0c-0.4,0-0.8-0.1-1.2-0.2c-0.4-0.2-0.7-0.4-1-0.7c-0.3-0.3-0.5-0.7-0.7-1.1    c-0.2-0.5-0.3-1-0.2-1.6c0-0.5,0.1-1,0.2-1.5C278.7,58.7,279,58.3,279.3,58z"/>
		<path id="_Path_11" class="st1" d="M299.8,61.5c-0.2-0.3-0.4-0.6-0.6-0.9c-0.3-0.2-0.6-0.4-0.9-0.6c-0.3-0.1-0.6-0.3-1-0.4    l-0.9-0.3c-0.3-0.1-0.5-0.2-0.8-0.3c-0.2-0.1-0.4-0.2-0.5-0.4c-0.1-0.1-0.2-0.3-0.2-0.5c0-0.2,0-0.3,0.1-0.5    c0.1-0.1,0.1-0.2,0.2-0.3c0.1-0.1,0.3-0.2,0.4-0.2c0.5-0.1,0.9-0.1,1.4,0c0.2,0.1,0.4,0.2,0.5,0.2l0.4,0.3c0.3,0.2,0.6,0.2,0.9,0    c0.1-0.1,0.2-0.2,0.3-0.3l0.6-1.2l-0.2-0.1c-0.4-0.4-0.9-0.7-1.5-0.9c-1.1-0.4-2.4-0.4-3.5,0c-0.5,0.2-0.9,0.4-1.2,0.8    c-0.7,0.6-1,1.5-1,2.4c0,0.5,0.1,0.9,0.2,1.4c0.1,0.4,0.4,0.7,0.6,1c0.3,0.3,0.6,0.5,0.9,0.6c0.3,0.1,0.6,0.3,1,0.4    c0.3,0.1,0.6,0.2,0.9,0.3c0.3,0.1,0.5,0.2,0.8,0.3c0.2,0.1,0.4,0.2,0.5,0.4c0.1,0.2,0.2,0.3,0.2,0.5c0,0.4-0.1,0.7-0.4,1    c-0.3,0.3-0.8,0.4-1.2,0.4c-0.3,0-0.6,0-0.9-0.1c-0.2-0.1-0.5-0.2-0.7-0.3c-0.2-0.1-0.4-0.2-0.5-0.3c-0.3-0.2-0.7-0.3-1-0.1    c-0.1,0.1-0.2,0.2-0.3,0.3l-0.7,1.2l0.2,0.2c0.2,0.2,0.5,0.5,0.8,0.6c0.3,0.2,0.6,0.4,0.9,0.5c0.3,0.1,0.7,0.2,1,0.3    c0.4,0.1,0.7,0.1,1.1,0.1c0.6,0,1.2-0.1,1.7-0.3c0.5-0.2,0.9-0.5,1.3-0.8c0.4-0.4,0.6-0.8,0.8-1.2c0.2-0.5,0.3-1,0.3-1.5    C300,62.3,300,61.9,299.8,61.5z"/>
	</g>
</g>
</svg>